<svg width="18" height="18" viewBox="0 0 18 18" fill="none" xmlns="http://www.w3.org/2000/svg">
<path fill-rule="evenodd" clip-rule="evenodd" d="M1.22205 15.364C0.831524 15.7545 0.831524 16.3877 1.22205 16.7782C1.61257 17.1687 2.24574 17.1687 2.63626 16.7782L9.00024 10.4142L15.3642 16.7782C15.7548 17.1687 16.3879 17.1687 16.7784 16.7782C17.169 16.3877 17.169 15.7545 16.7784 15.364L10.4145 9L16.7784 2.63606C17.1689 2.24554 17.1689 1.61237 16.7784 1.22185C16.3879 0.831323 15.7547 0.831324 15.3642 1.22185L9.00024 7.58579L2.63631 1.22185C2.24578 0.831324 1.61262 0.831324 1.22209 1.22185C0.831567 1.61237 0.831567 2.24554 1.22209 2.63606L7.58603 9L1.22205 15.364Z" fill="#47494B"/>
</svg>
