<svg width="24" height="24" viewBox="0 0 24 24" fill="none" xmlns="http://www.w3.org/2000/svg">
<path fill-rule="evenodd" clip-rule="evenodd" d="M9.89377 9.67703C11.2408 9.55518 12.2218 8.18434 12.0901 6.61549C11.9583 5.04664 10.7576 3.87381 9.41059 4.01089C8.06353 4.13275 7.08252 5.50359 7.2143 7.07244C7.34607 8.64129 8.54671 9.79889 9.89377 9.67703ZM10.904 19.8212C13.8324 20.2477 16.1165 20.1411 16.1751 16.8663C16.219 14.0332 14.4327 10.6518 12.1632 10.332C9.89368 10.0121 7.28742 12.7538 6.59924 15.4955C5.79394 18.6636 7.96095 19.3948 10.904 19.8212ZM3.15852 11.5353C2.70462 10.2254 3.26102 8.82407 4.3738 8.39759C5.50123 7.98634 6.78972 8.70222 7.24362 10.0274C7.68288 11.3373 7.14113 12.7386 6.0137 13.1498C4.88627 13.5611 3.61242 12.8452 3.15852 11.5353ZM17.7711 8.58036C18.3128 7.1029 17.7271 5.51882 16.4533 5.01618C15.1941 4.51354 13.7299 5.30558 13.1881 6.76781C12.6464 8.24527 13.2321 9.82935 14.5059 10.332C15.7651 10.8499 17.2293 10.0578 17.7711 8.58036ZM20.1433 10.6671C21.1243 11.383 21.2854 12.8909 20.5093 14.018C19.7333 15.1604 18.3277 15.4955 17.3467 14.7644C16.3657 14.0485 16.2046 12.5406 16.9806 11.4135C17.7567 10.2863 19.1623 9.95122 20.1433 10.6671Z" fill="#125E7E"/>
</svg>
