<svg width="20" height="18" viewBox="0 0 20 18" fill="none" xmlns="http://www.w3.org/2000/svg">
<path fill-rule="evenodd" clip-rule="evenodd" d="M0 1C0 0.447715 0.447715 0 1 0H19C19.5523 0 20 0.447715 20 1C20 1.55228 19.5523 2 19 2H1C0.447715 2 0 1.55228 0 1ZM0 9C0 8.44771 0.447715 8 1 8H19C19.5523 8 20 8.44771 20 9C20 9.55228 19.5523 10 19 10H1C0.447715 10 0 9.55228 0 9ZM1 16C0.447715 16 0 16.4477 0 17C0 17.5523 0.447715 18 1 18H19C19.5523 18 20 17.5523 20 17C20 16.4477 19.5523 16 19 16H1Z" fill="#47494B"/>
</svg>
