<svg width="24" height="24" viewBox="0 0 24 24" fill="none" xmlns="http://www.w3.org/2000/svg">
<path d="M20.3585 7.32744L20.3533 7.30667C19.9311 5.60824 18.0278 3.78573 16.2799 3.40657L16.2602 3.40253C13.433 2.86582 10.5664 2.86582 7.73983 3.40253L7.71953 3.40657C5.9722 3.78573 4.06886 5.60824 3.64609 7.30667L3.64145 7.32744C3.11952 9.69936 3.11952 12.1047 3.64145 14.4767L3.64609 14.4974C4.05083 16.1234 5.81243 17.8621 7.4951 18.3403V20.2363C7.4951 20.9224 8.33542 21.2595 8.81328 20.7643L10.7436 18.7676C11.1622 18.7909 11.5811 18.8039 12 18.8039C13.4232 18.8039 14.8469 18.67 16.2602 18.4016L16.2799 18.3976C18.0278 18.0184 19.9311 16.1959 20.3533 14.4975L20.3585 14.4767C20.8805 12.1047 20.8805 9.69936 20.3585 7.32744ZM18.831 14.1327C18.5492 15.2408 17.104 16.6183 15.9557 16.8728C14.4525 17.1573 12.9373 17.2789 11.4237 17.2371C11.3936 17.2363 11.3647 17.2479 11.3437 17.2694C11.1289 17.4888 9.93429 18.7092 9.93429 18.7092L8.43516 20.2402C8.32556 20.3539 8.13302 20.2766 8.13302 20.1196V16.9789C8.13302 16.927 8.09579 16.8829 8.04458 16.8729C8.04429 16.8729 8.044 16.8728 8.04371 16.8728C6.89545 16.6182 5.45084 15.2407 5.16841 14.1326C4.69867 11.9887 4.69867 9.8153 5.16841 7.67134C5.45084 6.5633 6.89545 5.18574 8.04371 4.93123C10.6691 4.43434 13.3309 4.43434 15.9557 4.93123C17.1046 5.18574 18.5492 6.5633 18.831 7.67134C19.3013 9.81536 19.3013 11.9887 18.831 14.1327Z" fill="#7D3DAF"/>
<path d="M14.4978 15.5825C14.3212 15.5291 14.153 15.4933 13.9968 15.4288C12.3778 14.7604 10.8879 13.898 9.70764 12.5762C9.03649 11.8245 8.51119 10.9759 8.06714 10.0778C7.85656 9.65186 7.6791 9.20927 7.49822 8.76958C7.33329 8.3686 7.57622 7.95435 7.83203 7.65224C8.07207 7.3687 8.38094 7.15171 8.71544 6.9918C8.97653 6.86697 9.23407 6.93893 9.42475 7.15916C9.83697 7.63527 10.2156 8.13574 10.5222 8.68763C10.7108 9.02708 10.659 9.44202 10.3173 9.67304C10.2343 9.72919 10.1586 9.7951 10.0812 9.85852C10.0134 9.9141 9.94953 9.97025 9.90302 10.0455C9.81801 10.1832 9.81395 10.3456 9.86869 10.4953C10.2901 11.6477 11.0003 12.5437 12.1659 13.0264C12.3524 13.1036 12.5397 13.1935 12.7545 13.1686C13.1144 13.1267 13.2309 12.734 13.4831 12.5287C13.7295 12.3282 14.0445 12.3255 14.31 12.4927C14.5755 12.66 14.833 12.8395 15.0888 13.021C15.34 13.1991 15.5901 13.3733 15.8217 13.5763C16.0445 13.7715 16.1212 14.0277 15.9958 14.2926C15.7661 14.7778 15.432 15.1815 14.9499 15.4392C14.8138 15.5119 14.6513 15.5354 14.4978 15.5825C14.3212 15.5291 14.6513 15.5354 14.4978 15.5825Z" fill="#7D3DAF"/>
<path d="M12.0043 6.43697C14.122 6.496 15.8612 7.89451 16.234 9.97787C16.2975 10.3329 16.3201 10.6958 16.3483 11.0561C16.3602 11.2076 16.274 11.3516 16.1096 11.3536C15.9399 11.3556 15.8635 11.2143 15.8525 11.0628C15.8307 10.7629 15.8155 10.4617 15.774 10.1643C15.5548 8.59454 14.2969 7.29582 12.7268 7.01713C12.4905 6.97518 12.2487 6.96415 12.0093 6.93917C11.858 6.92335 11.6599 6.91423 11.6263 6.72708C11.5982 6.57016 11.7313 6.44522 11.8815 6.4372C11.9223 6.43495 11.9633 6.43679 12.0043 6.43697C14.122 6.496 11.9633 6.43679 12.0043 6.43697Z" fill="#7D3DAF"/>
<path d="M15.2222 10.5885C15.2187 10.6148 15.2169 10.6766 15.2014 10.7349C15.1452 10.9465 14.8229 10.973 14.7486 10.7594C14.7267 10.6961 14.7234 10.624 14.7232 10.5558C14.7225 10.1095 14.625 9.66358 14.3988 9.27524C14.1663 8.87612 13.8111 8.54059 13.3945 8.33756C13.1426 8.21481 12.8701 8.13852 12.594 8.09304C12.4733 8.07319 12.3514 8.06112 12.2301 8.04433C12.0832 8.02402 12.0047 7.93081 12.0117 7.78671C12.0182 7.65167 12.1173 7.55454 12.2652 7.56285C12.7512 7.59032 13.2206 7.69484 13.6526 7.9225C14.5312 8.38552 15.0331 9.11637 15.1796 10.0923C15.1862 10.1365 15.1969 10.1803 15.2002 10.2246C15.2085 10.3342 15.2138 10.4439 15.2222 10.5885C15.2187 10.6148 15.2138 10.4439 15.2222 10.5885Z" fill="#7D3DAF"/>
<path d="M13.9056 10.5374C13.7285 10.5406 13.6337 10.443 13.6154 10.2814C13.6027 10.1687 13.5927 10.0545 13.5656 9.9448C13.5124 9.72884 13.3971 9.5287 13.2145 9.39637C13.1283 9.33387 13.0306 9.28834 12.9284 9.25896C12.7984 9.22162 12.6634 9.23189 12.5338 9.20027C12.393 9.16593 12.3151 9.05247 12.3372 8.92101C12.3574 8.80137 12.4743 8.70799 12.6057 8.71746C13.4267 8.77644 14.0135 9.19883 14.0972 10.1606C14.1031 10.2285 14.1101 10.3002 14.0949 10.3652C14.069 10.4763 13.9863 10.532 13.9056 10.5374C13.7285 10.5406 13.9863 10.532 13.9056 10.5374Z" fill="#7D3DAF"/>
</svg>
