<svg width="24" height="24" viewBox="0 0 24 24" fill="none" xmlns="http://www.w3.org/2000/svg">
<path d="M3 21L4.548 16.3563C3.76252 15.0352 3.31034 13.4934 3.31034 11.8448C3.31034 6.96 7.27034 3 12.1552 3C17.04 3 21 6.96 21 11.8448C21 16.7297 17.04 20.6897 12.1552 20.6897C10.6689 20.6897 9.26928 20.3213 8.04 19.6739L3 21Z" fill="#2CB742"/>
<path d="M17.7986 14.7884C17.3902 14.0166 15.8841 13.134 15.8841 13.134C15.5433 12.9397 15.1321 12.918 14.9378 13.2643C14.9378 13.2643 14.4484 13.8512 14.324 13.9356C13.7554 14.3208 13.2288 14.3059 12.6972 13.7742L11.4617 12.5388L10.2262 11.3033C9.69456 10.7716 9.67967 10.245 10.0648 9.67644C10.1492 9.552 10.7361 9.06258 10.7361 9.06258C11.0824 8.86799 11.0607 8.4571 10.8664 8.11634C10.8664 8.11634 9.98381 6.61024 9.21198 6.20182C8.88363 6.02803 8.4805 6.08886 8.21794 6.35141L7.67236 6.897C5.94156 8.62779 6.79377 10.5817 8.52456 12.3125L10.1064 13.8943L11.6882 15.4762C13.419 17.207 15.3729 18.0592 17.1037 16.3284L17.6493 15.7828C17.9119 15.5196 17.9724 15.1165 17.7986 14.7884Z" fill="white"/>
</svg>
